<?xml version="1.0" encoding="UTF-8" standalone="no"?>
<svg
   width="606mm"
   height="503mm"
   viewBox="0 0 606 503"
   version="1.1"
   preserveAspectRatio="xMidYMid meet"
   id="svg4309"
   sodipodi:docname="trash_inscapeversie.svg"
   inkscape:version="1.2.2 (732a01da63, 2022-12-09)"
   xmlns:inkscape="http://www.inkscape.org/namespaces/inkscape"
   xmlns:sodipodi="http://sodipodi.sourceforge.net/DTD/sodipodi-0.dtd"
   xmlns="http://www.w3.org/2000/svg"
   xmlns:svg="http://www.w3.org/2000/svg">
  <defs
     id="defs4313" />
  <sodipodi:namedview
     id="namedview4311"
     pagecolor="#ffffff"
     bordercolor="#000000"
     borderopacity="0.25"
     inkscape:showpageshadow="2"
     inkscape:pageopacity="0.0"
     inkscape:pagecheckerboard="0"
     inkscape:deskcolor="#d1d1d1"
     inkscape:document-units="mm"
     showgrid="false"
     inkscape:zoom="0.42291252"
     inkscape:cx="1144.4447"
     inkscape:cy="923.3588"
     inkscape:window-width="1920"
     inkscape:window-height="991"
     inkscape:window-x="-9"
     inkscape:window-y="-9"
     inkscape:window-maximized="1"
     inkscape:current-layer="svg4309" />
  <g
     id="svgGroup"
     stroke-linecap="round"
     fill-rule="evenodd"
     font-size="9pt"
     stroke="#000"
     stroke-width="0.25mm"
     fill="none"
     style="stroke:#000;stroke-width:0.25mm;fill:none">
    <path
       d="M 0 253 L 0 280.966 L 3 280.966 L 3 308.69 L 0 308.69 L 0 336.414 L 3 336.414 L 3 364.138 L 0 364.138 L 0 391.862 L 3 391.862 L 3 419.586 L 0 419.586 L 0 447.31 L 3 447.31 L 3 475.034 L 0 475.034 L 0 503 L 30.69 503 L 30.69 500 L 58.414 500 L 58.414 503 L 86.138 503 L 86.138 500 L 113.862 500 L 113.862 503 L 141.586 503 L 141.586 500 L 169.31 500 L 169.31 503 L 200 503 L 200 475.034 L 197 475.034 L 197 447.31 L 200 447.31 L 200 419.586 L 197 419.586 L 197 391.862 L 200 391.862 L 200 364.138 L 197 364.138 L 197 336.414 L 200 336.414 L 200 308.69 L 197 308.69 L 197 280.966 L 200 280.966 L 200 253 L 0 253 Z"
       id="front_outsideCutPath"
       stroke="#FF0000"
       stroke-width="0.1"
       style="stroke:#FF0000;stroke-width:0.1"
       vector-effect="non-scaling-stroke" />
    <path
       d="M 129.15 393.107 L 125.908 393.107 L 125.908 379.259 A 9.165 9.165 0 0 0 125.803 377.822 Q 125.683 377.065 125.424 376.462 A 3.857 3.857 0 0 0 124.717 375.353 A 3.655 3.655 0 0 0 123.218 374.396 Q 122.629 374.189 121.904 374.111 A 8.595 8.595 0 0 0 120.986 374.064 A 9.813 9.813 0 0 0 119.15 374.224 Q 118.127 374.419 117.34 374.852 A 4.571 4.571 0 0 0 116.064 375.88 A 5.3 5.3 0 0 0 115.143 377.491 Q 114.502 379.199 114.502 381.877 L 114.502 393.107 L 111.26 393.107 L 111.26 371.701 L 113.896 371.701 L 114.424 374.63 L 114.58 374.63 A 6.565 6.565 0 0 1 117.152 372.291 A 7.894 7.894 0 0 1 117.373 372.179 A 8.78 8.78 0 0 1 120.497 371.346 A 10.616 10.616 0 0 1 121.377 371.31 A 12.801 12.801 0 0 1 123.556 371.483 Q 125.839 371.878 127.197 373.175 A 5.619 5.619 0 0 1 128.566 375.325 Q 128.895 376.21 129.039 377.308 A 14.149 14.149 0 0 1 129.15 379.142 L 129.15 393.107 Z M 66.865 371.701 L 66.865 374.22 L 61.416 374.22 L 61.416 393.107 L 58.174 393.107 L 58.174 374.22 L 54.346 374.22 L 54.346 372.755 L 58.174 371.584 L 58.174 370.392 Q 58.174 362.502 65.068 362.502 A 10.441 10.441 0 0 1 66.546 362.614 Q 67.265 362.717 68.064 362.915 A 20.988 20.988 0 0 1 69.053 363.185 L 68.213 365.783 Q 66.881 365.353 65.825 365.228 A 6.973 6.973 0 0 0 65.01 365.177 A 4.372 4.372 0 0 0 63.956 365.297 A 2.808 2.808 0 0 0 62.295 366.398 A 3.751 3.751 0 0 0 61.799 367.398 Q 61.47 368.375 61.424 369.826 A 15.307 15.307 0 0 0 61.416 370.314 L 61.416 371.701 L 66.865 371.701 Z M 145.654 390.431 L 145.654 392.912 A 3.189 3.189 0 0 1 145.276 393.062 Q 144.807 393.217 144.102 393.332 Q 143.144 393.487 142.366 393.497 A 8.312 8.312 0 0 1 142.256 393.498 A 8.468 8.468 0 0 1 139.76 393.162 Q 137.017 392.315 136.299 389.335 A 10.191 10.191 0 0 1 136.045 386.955 L 136.045 374.22 L 132.979 374.22 L 132.979 372.658 L 136.045 371.31 L 137.412 366.74 L 139.287 366.74 L 139.287 371.701 L 145.498 371.701 L 145.498 374.22 L 139.287 374.22 L 139.287 386.818 A 6.529 6.529 0 0 0 139.381 387.964 Q 139.494 388.594 139.74 389.092 A 3.145 3.145 0 0 0 140.205 389.787 Q 141.123 390.822 142.725 390.822 A 10.648 10.648 0 0 0 144.284 390.71 A 9.812 9.812 0 0 0 144.385 390.695 Q 145.149 390.574 145.611 390.444 A 4.868 4.868 0 0 0 145.654 390.431 Z M 83.096 371.544 L 82.646 374.552 A 14.289 14.289 0 0 0 81.619 374.363 Q 81.106 374.288 80.651 374.268 A 7.604 7.604 0 0 0 80.303 374.259 A 5.618 5.618 0 0 0 76.152 376.052 A 7.686 7.686 0 0 0 75.859 376.369 A 7.404 7.404 0 0 0 74.073 380.526 A 9.841 9.841 0 0 0 74.014 381.623 L 74.014 393.107 L 70.771 393.107 L 70.771 371.701 L 73.447 371.701 L 73.818 375.666 L 73.975 375.666 Q 75.166 373.576 76.846 372.443 Q 78.525 371.31 80.537 371.31 Q 81.963 371.31 83.096 371.544 Z M 105.279 385.642 A 16.747 16.747 0 0 0 105.576 382.384 A 19.028 19.028 0 0 0 105.569 381.87 Q 105.521 380.087 105.135 378.574 A 10.096 10.096 0 0 0 102.93 374.298 Q 100.283 371.31 95.791 371.31 Q 91.143 371.31 88.525 374.23 Q 86.787 376.169 86.204 379.129 A 16.834 16.834 0 0 0 85.908 382.384 A 16.219 16.219 0 0 0 86.112 385.012 A 11.994 11.994 0 0 0 87.119 388.283 A 10.656 10.656 0 0 0 87.355 388.745 A 8.777 8.777 0 0 0 90.557 392.15 A 9.028 9.028 0 0 0 92.629 393.071 A 10.412 10.412 0 0 0 95.654 393.498 A 12.59 12.59 0 0 0 97.853 393.314 A 8.644 8.644 0 0 0 102.939 390.558 A 9.044 9.044 0 0 0 104.016 389.079 Q 104.895 387.576 105.279 385.642 Z M 89.268 382.384 A 16.418 16.418 0 0 0 89.424 384.73 Q 89.596 385.92 89.958 386.885 A 6.802 6.802 0 0 0 90.908 388.634 A 5.314 5.314 0 0 0 94.369 390.672 A 8.052 8.052 0 0 0 95.732 390.783 A 7.531 7.531 0 0 0 97.719 390.536 A 5.241 5.241 0 0 0 100.566 388.644 A 6.96 6.96 0 0 0 101.65 386.533 Q 101.969 385.558 102.108 384.367 A 17.078 17.078 0 0 0 102.217 382.384 A 16.177 16.177 0 0 0 102.064 380.079 Q 101.714 377.657 100.566 376.183 Q 98.916 374.064 95.693 374.064 A 7.716 7.716 0 0 0 93.772 374.289 A 5.164 5.164 0 0 0 90.889 376.154 Q 89.268 378.244 89.268 382.384 Z"
       id="front_labelLayer"
       stroke="#777777"
       fill="#777777"
       style="stroke:#777777;fill:#777777"
       vector-effect="non-scaling-stroke" />
    <path
       d="M 206 253 L 206 280.966 L 203 280.966 L 203 308.69 L 206 308.69 L 206 336.414 L 203 336.414 L 203 364.138 L 206 364.138 L 206 391.862 L 203 391.862 L 203 419.586 L 206 419.586 L 206 447.31 L 203 447.31 L 203 475.034 L 206 475.034 L 206 503 L 233.69 503 L 233.69 500 L 261.414 500 L 261.414 503 L 289.138 503 L 289.138 500 L 316.862 500 L 316.862 503 L 344.586 503 L 344.586 500 L 372.31 500 L 372.31 503 L 400 503 L 400 475.034 L 403 475.034 L 403 447.31 L 400 447.31 L 400 419.586 L 403 419.586 L 403 391.862 L 400 391.862 L 400 364.138 L 403 364.138 L 403 336.414 L 400 336.414 L 400 308.69 L 403 308.69 L 403 280.966 L 400 280.966 L 400 253 L 206 253 Z"
       id="left_outsideCutPath"
       stroke="#FF0000"
       stroke-width="0.1"
       style="stroke:#FF0000;stroke-width:0.1"
       vector-effect="non-scaling-stroke" />
    <path
       d="M 317.229 371.701 L 317.229 374.22 L 311.779 374.22 L 311.779 393.107 L 308.537 393.107 L 308.537 374.22 L 304.709 374.22 L 304.709 372.755 L 308.537 371.584 L 308.537 370.392 Q 308.537 362.502 315.432 362.502 A 10.441 10.441 0 0 1 316.909 362.614 Q 317.628 362.717 318.427 362.915 A 20.988 20.988 0 0 1 319.416 363.185 L 318.576 365.783 Q 317.244 365.353 316.188 365.228 A 6.973 6.973 0 0 0 315.373 365.177 A 4.372 4.372 0 0 0 314.319 365.297 A 2.808 2.808 0 0 0 312.658 366.398 A 3.751 3.751 0 0 0 312.162 367.398 Q 311.833 368.375 311.787 369.826 A 15.307 15.307 0 0 0 311.779 370.314 L 311.779 371.701 L 317.229 371.701 Z M 302.053 380.939 L 302.053 382.99 L 287.307 382.99 Q 287.373 385.565 288.238 387.292 A 6.087 6.087 0 0 0 289.211 388.712 A 5.891 5.891 0 0 0 292.304 390.455 A 8.926 8.926 0 0 0 294.299 390.666 Q 297.756 390.666 301.135 389.22 L 301.135 392.111 A 19.464 19.464 0 0 1 299.361 392.781 A 14.885 14.885 0 0 1 297.883 393.175 Q 296.35 393.498 294.182 393.498 A 12.599 12.599 0 0 1 291.029 393.124 A 8.921 8.921 0 0 1 286.691 390.607 A 9.542 9.542 0 0 1 284.409 386.416 Q 284.012 384.93 283.956 383.165 A 18.519 18.519 0 0 1 283.947 382.58 Q 283.947 378.361 285.641 375.557 A 9.601 9.601 0 0 1 286.496 374.357 Q 289.045 371.31 293.342 371.31 Q 297.365 371.31 299.709 373.957 Q 302.053 376.603 302.053 380.939 Z M 330.979 390.431 L 330.979 392.912 A 3.189 3.189 0 0 1 330.6 393.062 Q 330.131 393.217 329.426 393.332 Q 328.468 393.487 327.69 393.497 A 8.312 8.312 0 0 1 327.58 393.498 A 8.468 8.468 0 0 1 325.085 393.162 Q 322.342 392.315 321.624 389.335 A 10.191 10.191 0 0 1 321.369 386.955 L 321.369 374.22 L 318.303 374.22 L 318.303 372.658 L 321.369 371.31 L 322.736 366.74 L 324.611 366.74 L 324.611 371.701 L 330.822 371.701 L 330.822 374.22 L 324.611 374.22 L 324.611 386.818 A 6.529 6.529 0 0 0 324.706 387.964 Q 324.818 388.594 325.065 389.092 A 3.145 3.145 0 0 0 325.529 389.787 Q 326.447 390.822 328.049 390.822 A 10.648 10.648 0 0 0 329.609 390.71 A 9.812 9.812 0 0 0 329.709 390.695 Q 330.473 390.574 330.935 390.444 A 4.868 4.868 0 0 0 330.979 390.431 Z M 278.264 362.716 L 278.264 393.107 L 275.021 393.107 L 275.021 362.716 L 278.264 362.716 Z M 287.385 380.353 L 298.576 380.353 Q 298.576 378.279 297.951 376.862 A 5.016 5.016 0 0 0 297.209 375.656 A 4.442 4.442 0 0 0 294.534 374.133 A 6.663 6.663 0 0 0 293.303 374.025 Q 290.725 374.025 289.191 375.705 A 6.405 6.405 0 0 0 287.918 377.853 Q 287.595 378.736 287.448 379.799 A 12.249 12.249 0 0 0 287.385 380.353 Z"
       id="left_labelLayer"
       stroke="#777777"
       fill="#777777"
       style="stroke:#777777;fill:#777777"
       vector-effect="non-scaling-stroke" />
    <path
       d="M 0 0 L 0 27.966 L 3 27.966 L 3 55.69 L 0 55.69 L 0 83.414 L 3 83.414 L 3 111.138 L 0 111.138 L 0 138.862 L 3 138.862 L 3 166.586 L 0 166.586 L 0 194.31 L 3 194.31 L 3 222.034 L 0 222.034 L 0 250 L 30.69 250 L 30.69 247 L 58.414 247 L 58.414 250 L 86.138 250 L 86.138 247 L 113.862 247 L 113.862 250 L 141.586 250 L 141.586 247 L 169.31 247 L 169.31 250 L 200 250 L 200 222.034 L 197 222.034 L 197 194.31 L 200 194.31 L 200 166.586 L 197 166.586 L 197 138.862 L 200 138.862 L 200 111.138 L 197 111.138 L 197 83.414 L 200 83.414 L 200 55.69 L 197 55.69 L 197 27.966 L 200 27.966 L 200 0 L 0 0 Z"
       id="back_outsideCutPath"
       stroke="#FF0000"
       stroke-width="0.1"
       style="stroke:#FF0000;stroke-width:0.1"
       vector-effect="non-scaling-stroke" />
    <path
       d="M 127.383 129.043 L 127.539 129.043 Q 128.379 127.851 130.098 125.918 L 137.012 118.594 L 140.859 118.594 L 132.188 127.715 L 141.465 140 L 137.539 140 L 129.98 129.883 L 127.539 131.992 L 127.539 140 L 124.336 140 L 124.336 109.609 L 127.539 109.609 L 127.539 125.722 Q 127.539 126.777 127.388 128.962 A 134.757 134.757 0 0 1 127.383 129.043 Z M 61.777 137.246 L 61.543 137.246 L 60.859 140 L 58.535 140 L 58.535 109.609 L 61.777 109.609 L 61.777 116.992 Q 61.777 119.392 61.631 121.317 A 40.448 40.448 0 0 1 61.621 121.445 L 61.777 121.445 A 7.371 7.371 0 0 1 67.158 118.32 A 11.073 11.073 0 0 1 68.496 118.242 A 9.909 9.909 0 0 1 71.285 118.614 A 7.418 7.418 0 0 1 75.049 121.123 Q 76.918 123.43 77.29 127.271 A 20.811 20.811 0 0 1 77.383 129.277 A 19.01 19.01 0 0 1 77.131 132.476 Q 76.613 135.506 75.029 137.47 A 7.675 7.675 0 0 1 69.574 140.339 A 10.996 10.996 0 0 1 68.496 140.39 Q 66.406 140.39 64.678 139.619 A 7.181 7.181 0 0 1 61.777 137.246 Z M 98.613 140 L 96.211 140 L 95.566 136.953 L 95.41 136.953 Q 94.279 138.373 93.154 139.146 A 5.974 5.974 0 0 1 92.217 139.678 Q 90.905 140.265 89.055 140.368 A 14.591 14.591 0 0 1 88.242 140.39 A 9.95 9.95 0 0 1 86.217 140.197 Q 84.98 139.94 84.03 139.34 A 5.583 5.583 0 0 1 83.252 138.75 Q 81.445 137.109 81.445 134.082 A 5.61 5.61 0 0 1 84.636 128.787 Q 87.012 127.523 91.157 127.312 A 31.671 31.671 0 0 1 91.816 127.285 L 95.449 127.168 L 95.449 125.84 Q 95.449 123.32 94.365 122.119 Q 93.5 121.161 91.809 120.967 A 8.011 8.011 0 0 0 90.898 120.918 A 10.556 10.556 0 0 0 88.469 121.221 Q 86.771 121.623 84.844 122.558 L 83.848 120.078 A 14.949 14.949 0 0 1 86.733 118.892 A 17.016 17.016 0 0 1 87.314 118.73 A 15.015 15.015 0 0 1 91.094 118.242 A 13.693 13.693 0 0 1 93.179 118.39 Q 94.251 118.555 95.107 118.907 A 5.518 5.518 0 0 1 96.768 119.941 A 5.134 5.134 0 0 1 98.092 121.985 Q 98.402 122.824 98.527 123.867 A 12.757 12.757 0 0 1 98.613 125.39 L 98.613 140 Z M 119.57 119.316 L 118.574 122.07 A 14.423 14.423 0 0 0 117.01 121.55 A 17.226 17.226 0 0 0 116.23 121.357 A 13.393 13.393 0 0 0 115.211 121.169 Q 114.715 121.098 114.273 121.08 A 7.187 7.187 0 0 0 113.984 121.074 Q 108.19 121.074 107.542 127.638 A 17.915 17.915 0 0 0 107.461 129.394 A 15.702 15.702 0 0 0 107.616 131.681 Q 107.787 132.84 108.146 133.782 A 6.725 6.725 0 0 0 109.053 135.449 Q 110.645 137.558 113.77 137.558 A 13.572 13.572 0 0 0 117.513 137.014 A 16.757 16.757 0 0 0 119.258 136.406 L 119.258 139.277 A 9.222 9.222 0 0 1 117.002 140.076 Q 115.959 140.307 114.747 140.368 A 17.78 17.78 0 0 1 113.848 140.39 A 12.117 12.117 0 0 1 110.9 140.052 A 8.217 8.217 0 0 1 106.65 137.529 Q 104.102 134.668 104.102 129.433 Q 104.102 124.062 106.689 121.133 A 8.395 8.395 0 0 1 111.286 118.489 A 12.727 12.727 0 0 1 114.063 118.203 A 14.631 14.631 0 0 1 117.148 118.535 Q 118.691 118.867 119.57 119.316 Z M 68.027 120.957 A 9.111 9.111 0 0 0 66.263 121.116 Q 65.258 121.315 64.495 121.762 A 4.312 4.312 0 0 0 63.242 122.861 A 5.55 5.55 0 0 0 62.439 124.392 Q 61.777 126.246 61.777 129.277 Q 61.777 133.109 62.862 135.089 A 4.89 4.89 0 0 0 63.281 135.732 A 4.704 4.704 0 0 0 65.667 137.342 Q 66.731 137.676 68.105 137.676 A 6.463 6.463 0 0 0 69.941 137.43 A 4.663 4.663 0 0 0 72.559 135.498 Q 73.605 133.942 73.904 131.415 A 18.577 18.577 0 0 0 74.023 129.238 A 19.155 19.155 0 0 0 73.908 127.055 Q 73.611 124.482 72.559 123.008 A 4.728 4.728 0 0 0 69.549 121.103 A 7.499 7.499 0 0 0 68.027 120.957 Z M 95.371 131.406 L 95.371 129.472 L 92.129 129.609 A 23.806 23.806 0 0 0 90.227 129.747 Q 88.351 129.965 87.175 130.484 A 4.979 4.979 0 0 0 86.553 130.81 A 3.46 3.46 0 0 0 84.904 133.32 A 5.121 5.121 0 0 0 84.844 134.121 Q 84.844 135.666 85.667 136.563 A 2.888 2.888 0 0 0 85.908 136.797 Q 86.827 137.589 88.38 137.698 A 7.292 7.292 0 0 0 88.887 137.715 A 8.927 8.927 0 0 0 90.815 137.518 Q 92.158 137.221 93.149 136.475 A 5.413 5.413 0 0 0 93.643 136.054 Q 95.371 134.394 95.371 131.406 Z"
       id="back_labelLayer"
       stroke="#777777"
       fill="#777777"
       style="stroke:#777777;fill:#777777"
       vector-effect="non-scaling-stroke" />
    <path
       d="M 206 0 L 206 27.966 L 203 27.966 L 203 55.69 L 206 55.69 L 206 83.414 L 203 83.414 L 203 111.138 L 206 111.138 L 206 138.862 L 203 138.862 L 203 166.586 L 206 166.586 L 206 194.31 L 203 194.31 L 203 222.034 L 206 222.034 L 206 250 L 233.69 250 L 233.69 247 L 261.414 247 L 261.414 250 L 289.138 250 L 289.138 247 L 316.862 247 L 316.862 250 L 344.586 250 L 344.586 247 L 372.31 247 L 372.31 250 L 400 250 L 400 222.034 L 403 222.034 L 403 194.31 L 400 194.31 L 400 166.586 L 403 166.586 L 403 138.862 L 400 138.862 L 400 111.138 L 403 111.138 L 403 83.414 L 400 83.414 L 400 55.69 L 403 55.69 L 403 27.966 L 400 27.966 L 400 0 L 206 0 Z"
       id="right_outsideCutPath"
       stroke="#FF0000"
       stroke-width="0.1"
       style="stroke:#FF0000;stroke-width:0.1"
       vector-effect="non-scaling-stroke" />
    <path
       d="M 327.873 135.391 L 324.631 135.391 L 324.631 121.543 A 9.165 9.165 0 0 0 324.526 120.106 Q 324.405 119.349 324.147 118.746 A 3.857 3.857 0 0 0 323.439 117.637 A 3.655 3.655 0 0 0 321.94 116.68 Q 321.352 116.472 320.627 116.394 A 8.595 8.595 0 0 0 319.709 116.348 A 9.811 9.811 0 0 0 317.875 116.507 Q 316.858 116.701 316.075 117.13 A 4.539 4.539 0 0 0 314.777 118.183 A 5.395 5.395 0 0 0 313.862 119.806 Q 313.31 121.292 313.236 123.5 A 20.925 20.925 0 0 0 313.225 124.199 L 313.225 135.391 L 309.982 135.391 L 309.982 105 L 313.225 105 L 313.225 114.199 A 29.166 29.166 0 0 1 313.204 115.319 Q 313.184 115.844 313.144 116.295 A 12.682 12.682 0 0 1 313.068 116.953 L 313.264 116.953 A 6.478 6.478 0 0 1 315.533 114.769 A 7.913 7.913 0 0 1 315.988 114.521 A 8.323 8.323 0 0 1 318.72 113.711 A 10.522 10.522 0 0 1 320.021 113.633 A 13.154 13.154 0 0 1 322.232 113.806 Q 323.407 114.007 324.337 114.44 A 5.844 5.844 0 0 1 325.91 115.498 A 5.645 5.645 0 0 1 327.303 117.684 Q 327.637 118.593 327.775 119.722 A 14.02 14.02 0 0 1 327.873 121.426 L 327.873 135.391 Z M 298.186 113.984 L 305.588 113.984 L 305.588 116.035 L 301.623 116.504 Q 302.083 117.079 302.461 117.952 A 9.995 9.995 0 0 1 302.6 118.291 A 6.238 6.238 0 0 1 302.969 119.781 A 8.01 8.01 0 0 1 303.029 120.781 Q 303.029 123.926 300.881 125.801 A 7.191 7.191 0 0 1 298.052 127.291 Q 296.981 127.591 295.71 127.657 A 14.082 14.082 0 0 1 294.982 127.676 A 10.42 10.42 0 0 1 293.777 127.608 A 8.799 8.799 0 0 1 293.186 127.519 A 5.769 5.769 0 0 0 292.256 128.121 Q 291.775 128.509 291.496 128.953 A 2.439 2.439 0 0 0 291.115 130.273 Q 291.115 131.125 291.794 131.546 A 1.8 1.8 0 0 0 291.838 131.572 Q 292.42 131.91 293.674 131.976 A 12.334 12.334 0 0 0 294.318 131.992 L 298.107 131.992 Q 300.426 131.992 302.028 132.644 A 5.859 5.859 0 0 1 303.449 133.457 A 4.743 4.743 0 0 1 305.212 136.478 A 7.124 7.124 0 0 1 305.314 137.715 A 7.02 7.02 0 0 1 304.913 140.143 Q 304.245 141.969 302.463 143.135 Q 300.475 144.435 297.214 144.829 A 25.698 25.698 0 0 1 294.143 145 A 18.165 18.165 0 0 1 291.706 144.847 Q 289.232 144.512 287.668 143.437 Q 285.393 141.875 285.393 139.023 Q 285.393 137.07 286.643 135.644 Q 287.893 134.219 290.158 133.711 A 3.365 3.365 0 0 1 288.852 132.655 A 3.995 3.995 0 0 1 288.781 132.558 A 3.006 3.006 0 0 1 288.23 130.934 A 3.723 3.723 0 0 1 288.225 130.742 A 3.708 3.708 0 0 1 288.412 129.548 A 3.286 3.286 0 0 1 288.85 128.691 A 4.641 4.641 0 0 1 289.462 128 Q 290.012 127.486 290.822 126.992 A 5.684 5.684 0 0 1 288.353 125.015 A 7.045 7.045 0 0 1 288.117 124.668 A 6.702 6.702 0 0 1 287.089 121.438 A 8.18 8.18 0 0 1 287.072 120.918 A 9.367 9.367 0 0 1 287.319 118.703 A 6.163 6.163 0 0 1 289.182 115.498 Q 291.291 113.594 295.158 113.594 A 12.427 12.427 0 0 1 296.802 113.697 A 9.465 9.465 0 0 1 298.186 113.984 Z M 344.377 132.715 L 344.377 135.195 A 3.189 3.189 0 0 1 343.999 135.345 Q 343.529 135.501 342.824 135.615 Q 341.867 135.77 341.088 135.78 A 8.312 8.312 0 0 1 340.979 135.781 A 8.468 8.468 0 0 1 338.483 135.445 Q 335.74 134.599 335.022 131.619 A 10.191 10.191 0 0 1 334.768 129.238 L 334.768 116.504 L 331.701 116.504 L 331.701 114.941 L 334.768 113.594 L 336.135 109.023 L 338.01 109.023 L 338.01 113.984 L 344.221 113.984 L 344.221 116.504 L 338.01 116.504 L 338.01 129.101 A 6.529 6.529 0 0 0 338.104 130.248 Q 338.216 130.877 338.463 131.375 A 3.145 3.145 0 0 0 338.928 132.07 Q 339.846 133.105 341.447 133.105 A 10.648 10.648 0 0 0 343.007 132.994 A 9.812 9.812 0 0 0 343.107 132.978 Q 343.872 132.857 344.333 132.727 A 4.868 4.868 0 0 0 344.377 132.715 Z M 273.947 113.828 L 273.498 116.836 A 14.289 14.289 0 0 0 272.471 116.646 Q 271.958 116.572 271.502 116.551 A 7.604 7.604 0 0 0 271.154 116.543 A 5.618 5.618 0 0 0 267.004 118.336 A 7.686 7.686 0 0 0 266.711 118.652 A 7.404 7.404 0 0 0 264.925 122.809 A 9.841 9.841 0 0 0 264.865 123.906 L 264.865 135.391 L 261.623 135.391 L 261.623 113.984 L 264.299 113.984 L 264.67 117.949 L 264.826 117.949 Q 266.018 115.859 267.697 114.726 Q 269.377 113.594 271.389 113.594 Q 272.814 113.594 273.947 113.828 Z M 281.193 113.984 L 281.193 135.391 L 277.951 135.391 L 277.951 113.984 L 281.193 113.984 Z M 297.072 134.902 L 293.186 134.902 A 7.453 7.453 0 0 0 291.842 135.016 Q 290.575 135.248 289.748 135.957 A 3.416 3.416 0 0 0 288.626 137.894 A 5.188 5.188 0 0 0 288.518 138.984 Q 288.518 140.605 289.791 141.496 A 3.804 3.804 0 0 0 289.982 141.621 A 5.192 5.192 0 0 0 291.26 142.168 Q 292.473 142.519 294.182 142.519 A 21.796 21.796 0 0 0 296.31 142.423 Q 298.816 142.176 300.227 141.299 A 4.729 4.729 0 0 0 301.324 140.38 A 3.544 3.544 0 0 0 302.189 137.988 A 4.387 4.387 0 0 0 302.109 137.117 Q 301.896 136.066 301.115 135.576 A 3.076 3.076 0 0 0 300.386 135.258 Q 299.229 134.902 297.072 134.902 Z M 290.275 120.84 A 6.329 6.329 0 0 0 290.406 122.166 Q 290.582 122.989 290.998 123.606 A 3.469 3.469 0 0 0 291.545 124.238 A 4.191 4.191 0 0 0 293.231 125.154 Q 293.874 125.339 294.641 125.379 A 8.348 8.348 0 0 0 295.08 125.391 Q 298.827 125.391 299.616 122.518 A 6.567 6.567 0 0 0 299.826 120.781 Q 299.826 116.953 296.801 116.163 A 7.051 7.051 0 0 0 295.021 115.957 A 6.803 6.803 0 0 0 293.635 116.089 Q 292.786 116.266 292.138 116.68 A 3.732 3.732 0 0 0 291.506 117.187 Q 290.275 118.418 290.275 120.84 Z M 277.723 107.59 A 3.593 3.593 0 0 0 277.678 108.183 A 3.828 3.828 0 0 0 277.695 108.55 Q 277.726 108.877 277.817 109.144 A 1.674 1.674 0 0 0 278.225 109.814 A 1.819 1.819 0 0 0 278.883 110.233 A 2.059 2.059 0 0 0 279.592 110.351 Q 280.373 110.351 280.939 109.814 Q 281.333 109.441 281.453 108.798 A 3.355 3.355 0 0 0 281.506 108.183 A 3.709 3.709 0 0 0 281.49 107.832 Q 281.459 107.512 281.371 107.25 A 1.637 1.637 0 0 0 280.939 106.562 A 1.91 1.91 0 0 0 279.592 106.035 A 2.475 2.475 0 0 0 279.428 106.04 A 1.875 1.875 0 0 0 278.225 106.553 A 1.516 1.516 0 0 0 277.89 107.029 Q 277.776 107.276 277.723 107.59 Z"
       id="right_labelLayer"
       stroke="#777777"
       fill="#777777"
       style="stroke:#777777;fill:#777777"
       vector-effect="non-scaling-stroke" />
    <path
       d="M 409 306 L 409 333.69 L 406 333.69 L 406 361.414 L 409 361.414 L 409 389.138 L 406 389.138 L 406 416.862 L 409 416.862 L 409 444.586 L 406 444.586 L 406 472.31 L 409 472.31 L 409 500 L 436.69 500 L 436.69 503 L 464.414 503 L 464.414 500 L 492.138 500 L 492.138 503 L 519.862 503 L 519.862 500 L 547.586 500 L 547.586 503 L 575.31 503 L 575.31 500 L 603 500 L 603 472.31 L 606 472.31 L 606 444.586 L 603 444.586 L 603 416.862 L 606 416.862 L 606 389.138 L 603 389.138 L 603 361.414 L 606 361.414 L 606 333.69 L 603 333.69 L 603 306 L 575.31 306 L 575.31 303 L 547.586 303 L 547.586 306 L 519.862 306 L 519.862 303 L 492.138 303 L 492.138 306 L 464.414 306 L 464.414 303 L 436.69 303 L 436.69 306 L 409 306 Z"
       id="bottom_outsideCutPath"
       stroke="#FF0000"
       stroke-width="0.1"
       style="stroke:#FF0000;stroke-width:0.1"
       vector-effect="non-scaling-stroke" />
    <path
       d="M 571.801 417.999 L 568.558 417.999 L 568.558 404.074 Q 568.558 402.471 568.129 401.37 A 3.918 3.918 0 0 0 567.465 400.236 A 3.412 3.412 0 0 0 565.879 399.21 Q 565.093 398.957 564.066 398.957 A 8.343 8.343 0 0 0 562.368 399.118 Q 561.359 399.328 560.598 399.811 A 4.293 4.293 0 0 0 559.594 400.695 A 5.358 5.358 0 0 0 558.685 402.339 Q 558.152 403.833 558.148 406.013 A 17.968 17.968 0 0 0 558.148 406.046 L 558.148 417.999 L 554.906 417.999 L 554.906 404.074 Q 554.906 402.471 554.477 401.37 A 3.918 3.918 0 0 0 553.812 400.236 Q 552.719 398.957 550.394 398.957 A 8.053 8.053 0 0 0 548.729 399.117 Q 546.927 399.499 545.932 400.783 A 5.437 5.437 0 0 0 545.125 402.314 Q 544.603 403.793 544.528 406.01 A 22.573 22.573 0 0 0 544.516 406.769 L 544.516 417.999 L 541.273 417.999 L 541.273 396.593 L 543.91 396.593 L 544.437 399.523 L 544.594 399.523 Q 545.512 397.96 547.182 397.082 A 7.697 7.697 0 0 1 550.222 396.229 A 9.297 9.297 0 0 1 550.922 396.203 A 10.615 10.615 0 0 1 553.311 396.451 Q 554.781 396.791 555.806 397.596 A 5.535 5.535 0 0 1 557.484 399.835 L 557.641 399.835 Q 558.598 398.156 560.414 397.179 A 8.206 8.206 0 0 1 563.424 396.264 A 10.232 10.232 0 0 1 564.555 396.203 A 11.27 11.27 0 0 1 566.599 396.376 Q 567.735 396.586 568.622 397.05 A 5.343 5.343 0 0 1 569.994 398.068 A 5.583 5.583 0 0 1 571.193 400.029 Q 571.516 400.893 571.667 401.969 A 14.871 14.871 0 0 1 571.801 404.035 L 571.801 417.999 Z M 443.441 415.246 L 443.207 415.246 L 442.523 417.999 L 440.199 417.999 L 440.199 387.609 L 443.441 387.609 L 443.441 394.992 Q 443.441 397.392 443.295 399.317 A 40.448 40.448 0 0 1 443.285 399.445 L 443.441 399.445 A 7.371 7.371 0 0 1 448.822 396.32 A 11.073 11.073 0 0 1 450.16 396.242 A 9.909 9.909 0 0 1 452.949 396.614 A 7.418 7.418 0 0 1 456.713 399.123 Q 458.582 401.429 458.954 405.271 A 20.811 20.811 0 0 1 459.047 407.277 A 19.01 19.01 0 0 1 458.795 410.475 Q 458.277 413.506 456.693 415.47 A 7.675 7.675 0 0 1 451.238 418.339 A 10.996 10.996 0 0 1 450.16 418.39 Q 448.07 418.39 446.342 417.619 A 7.181 7.181 0 0 1 443.441 415.246 Z M 498.715 415.324 L 498.715 417.804 A 3.189 3.189 0 0 1 498.337 417.954 Q 497.867 418.11 497.162 418.224 Q 496.205 418.379 495.426 418.389 A 8.312 8.312 0 0 1 495.316 418.39 A 8.468 8.468 0 0 1 492.821 418.054 Q 490.078 417.208 489.36 414.228 A 10.191 10.191 0 0 1 489.105 411.847 L 489.105 399.113 L 486.039 399.113 L 486.039 397.55 L 489.105 396.203 L 490.473 391.632 L 492.348 391.632 L 492.348 396.593 L 498.558 396.593 L 498.558 399.113 L 492.348 399.113 L 492.348 411.71 A 6.529 6.529 0 0 0 492.442 412.857 Q 492.554 413.486 492.801 413.984 A 3.145 3.145 0 0 0 493.266 414.679 Q 494.183 415.714 495.785 415.714 A 10.648 10.648 0 0 0 497.345 415.603 A 9.812 9.812 0 0 0 497.445 415.587 Q 498.209 415.466 498.671 415.336 A 4.868 4.868 0 0 0 498.715 415.324 Z M 512.836 415.324 L 512.836 417.804 A 3.189 3.189 0 0 1 512.458 417.954 Q 511.988 418.11 511.283 418.224 Q 510.326 418.379 509.547 418.389 A 8.312 8.312 0 0 1 509.437 418.39 A 8.468 8.468 0 0 1 506.942 418.054 Q 504.199 417.208 503.481 414.228 A 10.191 10.191 0 0 1 503.226 411.847 L 503.226 399.113 L 500.16 399.113 L 500.16 397.55 L 503.226 396.203 L 504.594 391.632 L 506.469 391.632 L 506.469 396.593 L 512.68 396.593 L 512.68 399.113 L 506.469 399.113 L 506.469 411.71 A 6.529 6.529 0 0 0 506.563 412.857 Q 506.675 413.486 506.922 413.984 A 3.145 3.145 0 0 0 507.387 414.679 Q 508.305 415.714 509.906 415.714 A 10.648 10.648 0 0 0 511.466 415.603 A 9.812 9.812 0 0 0 511.566 415.587 Q 512.331 415.466 512.792 415.336 A 4.868 4.868 0 0 0 512.836 415.324 Z M 482.89 410.535 A 16.747 16.747 0 0 0 483.187 407.277 A 19.028 19.028 0 0 0 483.181 406.762 Q 483.132 404.98 482.746 403.467 A 10.096 10.096 0 0 0 480.541 399.191 Q 477.894 396.203 473.402 396.203 Q 468.754 396.203 466.137 399.123 Q 464.399 401.062 463.815 404.021 A 16.834 16.834 0 0 0 463.519 407.277 A 16.219 16.219 0 0 0 463.723 409.904 A 11.994 11.994 0 0 0 464.73 413.175 A 10.656 10.656 0 0 0 464.966 413.637 A 8.777 8.777 0 0 0 468.168 417.042 A 9.028 9.028 0 0 0 470.24 417.964 A 10.412 10.412 0 0 0 473.266 418.39 A 12.59 12.59 0 0 0 475.464 418.206 A 8.644 8.644 0 0 0 480.551 415.451 A 9.044 9.044 0 0 0 481.628 413.971 Q 482.506 412.468 482.89 410.535 Z M 535.292 410.535 A 16.747 16.747 0 0 0 535.59 407.277 A 19.028 19.028 0 0 0 535.583 406.762 Q 535.535 404.98 535.149 403.467 A 10.096 10.096 0 0 0 532.943 399.191 Q 530.297 396.203 525.805 396.203 Q 521.156 396.203 518.539 399.123 Q 516.801 401.062 516.217 404.021 A 16.834 16.834 0 0 0 515.922 407.277 A 16.219 16.219 0 0 0 516.125 409.904 A 11.994 11.994 0 0 0 517.133 413.175 A 10.656 10.656 0 0 0 517.369 413.637 A 8.777 8.777 0 0 0 520.57 417.042 A 9.028 9.028 0 0 0 522.642 417.964 A 10.412 10.412 0 0 0 525.668 418.39 A 12.59 12.59 0 0 0 527.866 418.206 A 8.644 8.644 0 0 0 532.953 415.451 A 9.044 9.044 0 0 0 534.03 413.971 Q 534.908 412.468 535.292 410.535 Z M 466.879 407.277 A 16.418 16.418 0 0 0 467.035 409.622 Q 467.207 410.813 467.57 411.777 A 6.802 6.802 0 0 0 468.519 413.527 A 5.314 5.314 0 0 0 471.98 415.565 A 8.052 8.052 0 0 0 473.344 415.675 A 7.531 7.531 0 0 0 475.33 415.428 A 5.241 5.241 0 0 0 478.178 413.537 A 6.96 6.96 0 0 0 479.261 411.426 Q 479.58 410.45 479.72 409.259 A 17.078 17.078 0 0 0 479.828 407.277 A 16.177 16.177 0 0 0 479.675 404.972 Q 479.325 402.549 478.178 401.076 Q 476.527 398.957 473.305 398.957 A 7.716 7.716 0 0 0 471.384 399.182 A 5.164 5.164 0 0 0 468.5 401.046 Q 466.879 403.136 466.879 407.277 Z M 519.281 407.277 A 16.418 16.418 0 0 0 519.437 409.622 Q 519.61 410.813 519.972 411.777 A 6.802 6.802 0 0 0 520.922 413.527 A 5.314 5.314 0 0 0 524.383 415.565 A 8.052 8.052 0 0 0 525.746 415.675 A 7.531 7.531 0 0 0 527.733 415.428 A 5.241 5.241 0 0 0 530.58 413.537 A 6.96 6.96 0 0 0 531.664 411.426 Q 531.982 410.45 532.122 409.259 A 17.078 17.078 0 0 0 532.23 407.277 A 16.177 16.177 0 0 0 532.077 404.972 Q 531.728 402.549 530.58 401.076 Q 528.93 398.957 525.707 398.957 A 7.716 7.716 0 0 0 523.786 399.182 A 5.164 5.164 0 0 0 520.902 401.046 Q 519.281 403.136 519.281 407.277 Z M 449.691 398.957 A 9.111 9.111 0 0 0 447.927 399.116 Q 446.922 399.314 446.158 399.761 A 4.312 4.312 0 0 0 444.906 400.861 A 5.55 5.55 0 0 0 444.103 402.391 Q 443.441 404.246 443.441 407.277 Q 443.441 411.109 444.526 413.088 A 4.89 4.89 0 0 0 444.945 413.732 A 4.704 4.704 0 0 0 447.331 415.342 Q 448.395 415.675 449.769 415.675 A 6.463 6.463 0 0 0 451.605 415.43 A 4.663 4.663 0 0 0 454.223 413.498 Q 455.269 411.942 455.568 409.414 A 18.577 18.577 0 0 0 455.687 407.238 A 19.155 19.155 0 0 0 455.572 405.055 Q 455.275 402.481 454.223 401.007 A 4.728 4.728 0 0 0 451.212 399.102 A 7.499 7.499 0 0 0 449.691 398.957 Z"
       id="bottom_labelLayer"
       stroke="#777777"
       fill="#777777"
       style="stroke:#777777;fill:#777777"
       vector-effect="non-scaling-stroke" />
  </g>
</svg>
